<?xml version="1.0" encoding="UTF-8"?>
<svg id="Layer_2" data-name="Layer 2" xmlns="http://www.w3.org/2000/svg" viewBox="0 0 698 582.5">
  <defs>
    <style>
      .cls-1 {
        fill: none;
        stroke: #fff;
        stroke-linecap: round;
        stroke-linejoin: round;
        stroke-width: 18px;
      }
    </style>
  </defs>
  <g id="Layer_1-2" data-name="Layer 1">
    <g>
      <path id="waves" class="cls-1" d="M9,573.5c20,0,50-42,85-48,20,0,35,42,85,48,35,0,50-42,85-42s50,42,85,42,50-42,85-42,50,42,85,42,50-42,85-42,50,42,85,42"/>
      <path id="hull" class="cls-1" d="M77.4,531.7l-22.9-43.8,590-38c-46.4,42.2-106,76.4-166.3,104.4"/>
      <path id="front_sail" data-name="front sail" class="cls-1" d="M289.4,79.9c100.4,30.7,240.8,179,288.6,338.4-26.2-10.3-45.8-20.8-82.6-11.4-35.6-129.5-99.3-253.2-206-327Z"/>
      <path id="rear_sail" data-name="rear sail" class="cls-1" d="M102.7,9c128.6,55,305,208.1,337.4,412-148.3-59.8-261.2-27.9-339.8,20.6,119.9-152.4,66.1-325.7,2.4-432.6Z"/>
    </g>
  </g>
</svg>