<?xml version="1.0" encoding="UTF-8"?>
<svg id="Layer_1" data-name="Layer 1" xmlns="http://www.w3.org/2000/svg" viewBox="0 0 512 99.29">
  <defs>
    <style>
      .cls-1 {
        fill: #e80000;
      }

      .cls-1, .cls-2 {
        stroke-width: 0px;
      }

      .cls-2 {
        fill: #fff;
      }
    </style>
  </defs>
  <path class="cls-2" d="M20.48,79.91c13.19,0,21.66-6.65,21.66-17.16,0-8.15-5.25-13.83-14.58-15.98l-5.68-1.39-.83-.19c-4.7-1.12-7-2.37-7-5.92,0-3.11,2.47-4.83,6.65-4.83,13.3,0,18.11,4.83,18.11,4.83v-10.45l-.17-.17c-.96-.89-6.07-5.03-18.05-5.03C7.94,23.61,0,30.04,0,40.12c0,8,5.17,13.53,14.5,15.85l5.87,1.41c4.93,1.18,7.4,2.47,7.4,6.22,0,3.43-2.68,5.36-7.4,5.36-13.59,0-20.38-7.26-20.38-7.26v12.54l.17.18c.98.97,6.28,5.48,20.31,5.48ZM85.4,79.27v-11.66l-2.18.04c-1.26.01-3.07.01-5.37-.03h-.47c-5.82-.11-7.85-2.86-7.85-9.29v-21.9h14.6v-11.75h-14.6v-11.71h-13.69v11.71h-7.73v11.75h7.73v22.82c0,13.48,6.54,20.02,19.92,20.02h9.63ZM344.17,79.27v-11.66l-2.18.04c-1.26.01-3.07.01-5.37-.03h-.47c-5.82-.11-7.85-2.86-7.85-9.29v-21.9h14.6v-11.75h-14.6v-11.71h-13.69v11.71h-7.73v11.75h7.73v22.82c0,13.48,6.54,20.02,19.92,20.02h9.63ZM133.96,24.77v7.95c-3.6-5.83-10.29-9.12-17.93-9.12-15.16,0-25.66,11.45-25.66,27.88s10.39,27.78,25.34,27.78c7.74,0,14.54-3.29,18.25-9.12v7.95h12.82V24.77h-12.82ZM118.31,67.94c-8.62,0-14.36-6.66-14.36-15.96s5.86-15.96,14.36-15.96,14.91,6.77,14.91,15.96-6.41,15.96-14.91,15.96ZM191.27,23.61c-8.58,0-13.71,5.19-17.29,10.61V.31h-13.69v77.84h13.28v-7.76c3.47,5.62,10.24,8.57,17.7,8.57,14.3,0,24.72-11.24,24.72-26.97s-9.09-28.38-24.72-28.38ZM188.3,67.02c-8.76,0-14.86-6.65-14.86-15.64s6.65-15.19,15.19-15.19,14.2,6.21,14.2,15.19-6.1,15.64-14.53,15.64ZM234.74,15.34c4.26,0,7.43-3.08,7.43-7.25s-3.08-7.25-7.43-7.25-7.34,2.99-7.34,7.25,3.08,7.25,7.34,7.25ZM227.94,78.98h13.69V25.21h-13.69v53.77ZM290.72,15.34c4.26,0,7.43-3.08,7.43-7.25s-3.08-7.25-7.43-7.25-7.34,2.99-7.34,7.25,3.08,7.25,7.34,7.25ZM283.92,78.98h13.69V25.21h-13.69v53.77ZM255.77,78.33h14.11V0h-14.11v78.33ZM358.45,99.29h15.15l29.1-74.39h-14.19l-12.72,36.26-12.76-36.26h-15.73l21.09,51.93-9.94,22.46Z"/>
  <path class="cls-2" d="M470.81,24.77v7.95c-3.6-5.83-10.29-9.12-17.93-9.12-15.16,0-25.66,11.45-25.66,27.88s10.39,27.78,25.34,27.78c7.74,0,14.54-3.29,18.25-9.12v7.95h12.82V24.77h-12.82ZM455.15,67.94c-8.62,0-14.36-6.66-14.36-15.96s5.86-15.96,14.36-15.96,14.91,6.77,14.91,15.96-6.41,15.96-14.91,15.96ZM504.57,15.34c4.26,0,7.43-3.08,7.43-7.25s-3.08-7.25-7.43-7.25-7.34,2.99-7.34,7.25,3.08,7.25,7.34,7.25ZM497.77,78.98h13.69V25.21h-13.69v53.77Z"/>
  <path class="cls-1" d="M410.78,79.67c4.69,0,8.18-3.39,8.18-7.99s-3.39-7.99-8.18-7.99-8.08,3.29-8.08,7.99,3.39,7.99,8.08,7.99Z"/>
</svg>