<svg xmlns="http://www.w3.org/2000/svg" viewBox="0 0 126 51.79" fill="#fff" xmlns:v="https://vecta.io/nano"><path d="M7.83 26.78h.08c.4 0 .72.14.97.42.17.23.28.51.34.85.03.31-.01.79-.13 1.44a4.77 4.77 0 0 0-.13.55c.06-.06.11-.1.17-.13.17-.11.61-.49 1.31-1.14l1.04-.93c.24-.2.6-.41 1.08-.63.48-.23.95-.34 1.4-.34.54 0 .96.2 1.27.59.2.28.32.65.38 1.1.03.34-.01 1.12-.13 2.33-.06.9-.03 1.52.08 1.86.03.14.08.24.17.3.11.08.27.13.46.13.62 0 1.48-.28 2.58-.85.93-.45 1.99-1.1 3.17-1.95l1.86-1.35 1.4-1.14.51-.38c.14-.14.31-.21.51-.21.23 0 .42.08.57.23a.81.81 0 0 1 .23.57c0 .22-.1.42-.3.59l-3.85 3c-1.24.87-2.37 1.57-3.38 2.07-1.33.68-2.43 1.02-3.3 1.02-.56 0-1.04-.14-1.44-.42-.34-.28-.58-.66-.72-1.14-.2-.54-.24-1.35-.13-2.45l.08-2.03c0-.08-.03-.15-.08-.19a.37.37 0 0 0-.21-.06c-.54.14-1.27.63-2.2 1.48l-1.4 1.23c-.59.45-1.13.68-1.61.68-.42 0-.75-.17-.97-.51-.14-.23-.21-.49-.21-.8 0-.25.07-.71.21-1.35.03-.17-.03-.3-.17-.38s-.28-.08-.42 0c-.17.11-.34.24-.51.38-.65.51-1.41 1.21-2.29 2.12l-1.33 1.52-1.04 1.23-.34.42c-.17.23-.38.34-.63.34-.23 0-.42-.08-.57-.23s-.23-.34-.23-.57c0-.11.01-.21.04-.3l2.33-5.92c.14-.34.39-.51.76-.51.23 0 .42.08.57.23a.81.81 0 0 1 .23.57 1.24 1.24 0 0 1-.04.3l-.34.8c-.03.08 0 .16.06.21.07.06.13.04.19-.04l1.61-1.44c.96-.76 1.76-1.14 2.41-1.14z"/><path d="M26.32 27.29c.2 0 .37.08.53.23.15.16.23.33.23.53 0 .17-.03.31-.08.42-.76 1.3-1.1 2.57-1.02 3.81.03.56.18.99.47 1.27.28.31.73.46 1.35.46 1.97 0 4.47-1.07 7.49-3.21l2.01-1.54 1.46-1.29.51-.47c.14-.14.32-.21.55-.21s.42.08.57.23a.81.81 0 0 1 .23.57c0 .22-.08.41-.25.55-1.16 1.16-2.54 2.31-4.15 3.47-3.27 2.34-6.08 3.51-8.42 3.51-1.07 0-1.92-.32-2.54-.97-.51-.56-.8-1.33-.89-2.28-.08-1.55.32-3.12 1.23-4.7.14-.25.38-.38.72-.38zm1.1-3c-.34 0-.6.15-.78.44-.18.3-.28.6-.28.91a.95.95 0 0 0 .19.57c.13.18.29.28.49.28.37 0 .67-.13.91-.38s.36-.52.36-.8c0-.25-.08-.49-.23-.7-.16-.21-.37-.32-.66-.32z"/><path d="M64.48 5.97c.65 0 1.17.16 1.56.46.42.34.65.82.68 1.44.03.88-.35 2.03-1.14 3.47-1.47 2.62-3.94 5.75-7.4 9.39-3.58 3.75-7.15 6.87-10.7 9.35-.14.11-.23.18-.25.21-.48.34-.65.78-.51 1.31.06.31.15.58.3.8.34.54.97.8 1.9.8 1.69 0 3.74-.79 6.13-2.37a29.98 29.98 0 0 0 4.15-3.34.67.67 0 0 1 .55-.25c.23 0 .42.08.57.23a.81.81 0 0 1 .23.57c0 .22-.08.41-.25.55-1.27 1.27-2.72 2.45-4.36 3.55-2.65 1.78-4.99 2.67-7.02 2.67-1.5 0-2.58-.52-3.26-1.57a3.68 3.68 0 0 1-.51-1.14c0-.11-.05-.18-.15-.21s-.19-.03-.28 0c-2.82 1.69-5.17 2.54-7.07 2.54-.56 0-1-.18-1.31-.55-.31-.34-.47-.76-.47-1.27 0-.82.31-1.72.93-2.71.65-1.04 1.5-1.92 2.56-2.64s2.25-1.08 3.58-1.08a2.42 2.42 0 0 1 1.9.85c.14.17.25.34.34.51.06.06.12.08.19.06s.11-.05.11-.11c.62-2.23 1.76-4.74 3.43-7.53 2.2-3.72 4.67-6.9 7.4-9.52 3.1-2.99 5.82-4.48 8.17-4.48zM42.94 27.8c-.99 0-1.9.28-2.75.85a6.52 6.52 0 0 0-2.03 2.12c-.2.25-.35.63-.47 1.14-.06.25 0 .47.17.66.17.18.38.25.63.19.17 0 .3-.01.38-.04 1.63-.37 3.62-1.28 5.96-2.75a.38.38 0 0 0 .21-.34v-.08c.03-.06.02-.1-.02-.13s-.08-.03-.11 0h-.21c-.23 0-.42-.08-.57-.23-.16-.16-.23-.33-.23-.53v-.04c-.03-.08-.06-.17-.11-.25s-.09-.16-.15-.21c-.2-.23-.44-.34-.72-.34zM64.48 7.53c-.9 0-1.98.36-3.22 1.08s-2.52 1.71-3.85 2.98c-2.62 2.54-5.01 5.6-7.15 9.18-1.58 2.71-2.67 5.15-3.26 7.32-.03.08 0 .15.06.19.07.04.13.05.19.02 3.27-2.4 6.52-5.29 9.73-8.67 3.41-3.53 5.81-6.54 7.19-9.05.65-1.18.96-2.06.93-2.62 0-.14-.03-.24-.08-.3-.08-.08-.27-.13-.55-.13z"/><path d="M60.75 25.77c.2 0 .37.04.51.13.25.14.41.35.46.63.06.28-.01.56-.21.85-.14.23-.34.47-.59.72-.2.23-.31.48-.34.76 0 .08-.01.3-.04.66l-.04.83c-.03.4-.07.73-.13 1.02a.41.41 0 0 0 .13.3c.08.08.2.11.34.08.56-.17 1.17-.41 1.82-.72.73-.31 1.49-.7 2.29-1.18l2.3-1.46 1.54-1c.14-.06.28-.08.42-.08.2 0 .38.08.55.23a.75.75 0 0 1 .25.57.71.71 0 0 1-.42.68c-.23.11-.71.42-1.44.91l-2.37 1.5c-.85.51-1.68.95-2.5 1.31-1.13.51-2.21.86-3.26 1.06-.25.03-.48.14-.68.34-.56.59-1.25.89-2.07.89-.93 0-1.78-.42-2.54-1.27-.17-.17-.32-.35-.47-.55l-.34-.46-.08-.17c-.06-.11-.08-.24-.08-.38 0-.2.08-.37.23-.53a.81.81 0 0 1 .57-.23.92.92 0 0 1 .38.08c.93.54 1.93.82 3 .85.42.03.68-.17.76-.59a8.57 8.57 0 0 0 .17-1.31l.21-2.62c.08-.48.23-.86.42-1.14.31-.45.72-.68 1.23-.68z"/><path d="M74.25 25.39c.68 0 1.17.25 1.48.76.25.4.35.89.3 1.48-.08.99-.51 2.13-1.27 3.43a10.35 10.35 0 0 1-1.18 1.73c-.08.08-.1.17-.04.25s.14.13.25.13c3.33-.59 6.59-2.48 9.77-5.67.14-.14.32-.21.55-.21s.42.08.57.23a.81.81 0 0 1 .23.57c0 .2-.08.38-.25.55-2.23 2.23-4.47 3.85-6.73 4.87-2.26 1.01-4.39 1.51-6.39 1.48-.23 0-.42.04-.59.13-.85.51-1.67.76-2.45.76-.65 0-1.2-.21-1.65-.63-.06-.06-.11-.08-.17-.06-.06.01-.1.05-.13.11a23.51 23.51 0 0 0-.51.89L60.92 46.6c-.14.31-.38.46-.72.46-.23 0-.42-.08-.57-.25s-.23-.35-.23-.55a.61.61 0 0 1 .08-.3c1.41-3.38 3.06-6.75 4.95-10.11.03-.11.1-.24.21-.38l1.06-2.2c.06-.14.08-.3.08-.47l-.04-.42v-.04a.74.74 0 0 1 .46-.72c.25-.08.44-.25.55-.51l1.65-3.38c.14-.28.38-.42.72-.42.2 0 .37.06.51.17.25.2.48.2.68 0 1.38-1.38 2.69-2.07 3.93-2.07zm0 1.6c-1.04 0-2.37.95-3.98 2.83a29.46 29.46 0 0 0-1.73 2.33c-.08.11-.11.23-.06.36s.12.22.23.28c.56.23 1.17.38 1.82.47.2.03.38-.03.55-.17.87-.76 1.65-1.72 2.33-2.88.65-1.07 1-1.97 1.06-2.71.03-.25.01-.42-.04-.51h-.17z"/><path d="M86.61 25.51c.42 0 .8.1 1.14.3s.59.47.76.8c.28.65.23 1.35-.17 2.12-.65 1.33-1.89 2.13-3.72 2.41a.36.36 0 0 0-.32.17c-.07.11-.09.23-.06.34.06.17.13.31.21.42.31.51.87.76 1.69.76 2.74 0 5.88-1.78 9.43-5.33.17-.14.37-.21.59-.21.2 0 .37.08.53.23.16.16.23.33.23.53a.89.89 0 0 1-.21.59l-1.16 1.14c-.27.25-.82.73-1.67 1.42s-1.62 1.23-2.31 1.61-1.54.75-2.54 1.1-1.97.53-2.9.53c-1.44 0-2.47-.51-3.09-1.52-.51-.85-.65-1.88-.42-3.09.23-1.1.66-2.06 1.31-2.88.79-.96 1.68-1.44 2.67-1.44zm0 1.61c-.48 0-.95.28-1.4.85a3.56 3.56 0 0 0-.68 1.14c-.06.08-.05.17.02.25s.16.11.27.08c1.04-.25 1.75-.73 2.12-1.44.14-.31.17-.55.08-.72-.03-.11-.17-.17-.42-.17z"/><path d="M109.83 0c.9 0 1.59.34 2.07 1.02.42.56.62 1.34.59 2.33 0 1.78-.65 4.06-1.95 6.85-1.24 2.68-2.95 5.53-5.12 8.55s-4.68 5.91-7.53 8.67c-.73.71-1.02 1.55-.85 2.54.25 1.55.73 2.73 1.42 3.53s1.62 1.21 2.77 1.21c2 0 4.49-1.25 7.45-3.77a3.26 3.26 0 0 0 1.19-2.58c.06-2.65.41-5.42 1.06-8.29 1.07-4.65 2.67-8.56 4.78-11.72 2.37-3.58 4.91-5.37 7.62-5.37.68 0 1.23.17 1.65.51.45.34.75.82.89 1.44.25.99.14 2.33-.34 4.02-.9 3.13-2.76 6.84-5.58 11.13-2.51 3.89-5.19 7.24-8.04 10.03-.25.28-.37.61-.34.97.06.59.13 1.17.21 1.73.62 3.98 2.12 6.66 4.49 8.04a.71.71 0 0 1 .42.68c0 .23-.08.42-.23.57a.81.81 0 0 1-.57.23c-.14 0-.28-.04-.42-.13-2.82-1.61-4.57-4.65-5.25-9.14-.03-.2-.06-.41-.08-.63-.03-.11-.1-.19-.21-.23s-.21-.02-.3.06c-3.16 2.71-5.95 4.06-8.38 4.06-1.64 0-2.96-.59-3.98-1.78-.9-1.04-1.5-2.48-1.78-4.32-.54-3.33-.15-7.42 1.14-12.27 1.3-4.74 3.07-8.8 5.33-12.19 2.59-3.84 5.22-5.75 7.87-5.75zm0 1.61c-1.02 0-2.09.44-3.24 1.33s-2.25 2.12-3.32 3.7c-2.14 3.24-3.84 7.15-5.08 11.72-.65 2.37-1.06 4.63-1.23 6.77-.03.2.04.33.21.4s.32.05.47-.06c2.57-2.62 4.84-5.32 6.81-8.1s3.53-5.39 4.65-7.85c1.18-2.57 1.79-4.63 1.82-6.18 0-.65-.11-1.11-.34-1.4-.14-.23-.4-.34-.76-.34zm13.5 2.96c-2.12 0-4.22 1.54-6.3 4.61-2 3.05-3.51 6.8-4.53 11.25-.54 2.31-.86 4.57-.97 6.77 0 .2.08.33.25.4s.31.04.42-.11c2.29-2.48 4.43-5.26 6.43-8.33 2.71-4.15 4.48-7.7 5.33-10.66.42-1.41.55-2.48.38-3.22-.08-.25-.2-.44-.34-.55s-.37-.17-.68-.17z"/></svg>