<svg xmlns="http://www.w3.org/2000/svg" xmlns:xlink="http://www.w3.org/1999/xlink" viewBox="0 0 2053.94 2053.94" xmlns:v="https://vecta.io/nano"><defs><linearGradient id="A" x1="1026.97" y1="2053.94" x2="1026.97" y2="243.57" gradientUnits="userSpaceOnUse"><stop offset="0" stop-color="#1fc2ff"/><stop offset="1" stop-color="#32feff"/></linearGradient><linearGradient id="B" x1="1026.24" y1="1049.07" x2="1026.24" y2="0" xlink:href="#A"/><linearGradient id="C" x1="629.44" y1="1357.31" x2="629.44" y2="995.92" xlink:href="#A"/><linearGradient id="D" x1="629.45" y1="1357.31" x2="629.45" y2="995.92" xlink:href="#A"/><path id="E" d="M698.73,1288.84c-61.53,0-111.41-49.88-111.41-111.41s49.88-111.41,111.41-111.41,111.23,49.73,111.38,111.13c0-.19.03-.36.03-.55,0-99.79-80.9-180.69-180.69-180.69s-180.69,80.9-180.69,180.69,80.9,180.7,180.69,180.7,179.71-80.02,180.61-179.04c-.45,61.14-50.08,110.58-111.33,110.58Z"/></defs><path d="M1971.76 625.44c54.14-130.47 50.12-258.11-33.17-381.87 3.72 75.1-12.3 156.22-39.55 240.77l.43 1.21c-.29-.46-.53-.95-.81-1.41-165.87 424.25-798.89 234.93-871.68 836.05-62.85-595.91-692.62-459.21-866.78-843.7-.53.84-.98 1.73-1.51 2.57-26.22-82.65-41.58-161.97-37.94-235.5-81.9 121.71-87.04 247.17-35.7 375.39C30.66 744.06 0 881.84 0 1026.97c0 567.18 459.79 1026.97 1026.97 1026.97s1026.97-459.79 1026.97-1026.97c0-142.61-29.59-278.14-82.18-401.53zm-540.27 292.69c142.75 0 258.48 115.73 258.48 258.48s-115.72 258.48-258.48 258.48-258.48-115.73-258.48-258.48 115.72-258.48 258.48-258.48zm-802.05 0c142.76 0 258.48 115.73 258.48 258.48s-115.72 258.48-258.48 258.48-258.48-115.73-258.48-258.48 115.72-258.48 258.48-258.48zm693.48 791.34l-265.6 95.61c-19.62 7.06-41.09 7.06-60.71 0l-265.6-95.61c-583.38-76.1-789.2-578.73-451.49-1004.45l121.75 76.86c-324.67 298.54-60.88 897.15 451.5 679.01l174.2 273.94 174.2-273.94c512.37 218.14 776.17-380.48 451.5-679.01l121.75-76.86c337.71 425.72 131.9 928.36-451.5 1004.45z" fill="url(#A)"/><path d="M1026.97,1049.07c56.58-467.27,451.82-456.72,702.96-628.1,33.01-14.75,62.61-30.75,89.12-47.68C1630.69,145.3,1345.8,0,1026.97,0S421.78,146.08,233.43,375.09c77.61,55.88,180.65,97.56,298.08,126.23,222.46,99.2,458.27,195.14,495.46,547.75Z" fill="url(#B)"/><use xlink:href="#E" fill="url(#C)"/><use xlink:href="#E" x="802.04" fill="url(#D)"/></svg>