<?xml version="1.0" encoding="UTF-8"?>
<svg id="Layer_2" data-name="Layer 2" xmlns="http://www.w3.org/2000/svg" viewBox="0 0 668.51 132.76">
  <defs>
    <style>
      .cls-1 {
        fill: #e41c13;
      }

      .cls-1, .cls-2 {
        stroke-width: 0px;
      }

      .cls-2 {
        fill: #fff;
      }
    </style>
  </defs>
  <g id="katman_1" data-name="katman 1">
    <path class="cls-2" d="M211.26,81h-20.96l-4.35,13.43c-.18.54-.55.72-1.09.72h-10.52c-.63,0-.81-.27-.63-.91l18.15-52.35c.36-.91.72-2,.81-5.45,0-.45.27-.63.63-.63h14.43c.45,0,.64.09.73.45l20.68,58.07c.18.54.09.81-.54.81h-11.8c-.45,0-.73-.18-1-.54l-4.54-13.6h0ZM193.56,69.74h14.25c-1.72-5.99-5.35-16.97-7.17-23.5h-.09c-1.45,6.18-4.62,16.15-6.99,23.5h0ZM253.3,96.05c-13.43,0-23.68-7.53-23.68-22.95,0-13.06,9.71-23.86,26.31-23.86.73,0,1.54,0,2.91.09v-17.88c0-.45.27-.63.63-.63h11.52c.36,0,.45.18.45.54v53.62c0,2.18.18,4.9.36,6.63,0,.54-.09.72-.54.91-5.69,2.38-11.8,3.58-17.96,3.53h0ZM258.83,84.8v-24.68c-.91-.27-2.09-.36-3.36-.36-6.89,0-12.88,4.17-12.88,12.7,0,8.98,5.17,12.88,11.98,12.88,1.54,0,2.99-.17,4.26-.54ZM300,49.24c14.52,0,22.05,10.98,22.05,23.13,0,14.25-9.16,23.69-22.32,23.69-15.42,0-22.32-11.62-22.32-23.32,0-12.89,8.53-23.51,22.59-23.5h0ZM299.46,59.76c-5.35,0-9.34,4.63-9.34,12.79s3.72,12.97,9.89,12.97c5.26,0,9.26-4.45,9.26-12.79-.01-7.16-3.01-12.97-9.81-12.97h0ZM328.65,30.82h10.98c.72,0,.91.18.91.81l.09,18.6c2.27-.73,4.9-1,7.62-1,13.34,0,21.77,9.43,21.77,21.59,0,16.88-13.43,25.22-27.31,25.22-4.72,0-9.61-.54-14.15-2.09-.37-.1-.63-.43-.64-.81V31.54c0-.54.27-.72.73-.72ZM357.14,72.01c0-8.26-4.81-12.16-11.25-12.16-2.81,0-4.08.45-5.26.81v24.59c1.09.18,2.18.27,3.36.27,6.8.01,13.15-4.16,13.15-13.51ZM404.37,76h-17.78c.45,5.17,4.17,9.43,12.97,9.43,3.82.03,7.61-.67,11.16-2.09.37-.18.64-.09.64.36v8.62c0,.72-.18.91-.64,1.18-3.63,1.63-7.62,2.54-13.97,2.54-16.97,0-22.96-11.7-22.96-22.86,0-12.61,7.62-23.95,21.87-23.95s19.23,10.53,19.23,19.6c0,2.72-.18,5.08-.45,5.99-.09.45-.27.63-.72.73-1.27.27-4.72.45-9.35.45h0ZM386.59,67.11h11.79c2.91,0,4.27-.09,4.54-.19.09-.09.09-.45.09-.54,0-2.27-1.82-7.26-7.8-7.26-5.72.01-8.08,4.27-8.62,7.99h0ZM452.58,72.19v22.23c0,.55-.27.73-.72.73h-11.25c-.45,0-.63-.27-.63-.72v-57.99c0-.45.18-.63.72-.63h35.93c.54,0,.72.18.81.72l1,9.8c.09.54-.18.73-.73.73h-25.13v13.79h22.59c.54,0,.82.18.82.73v9.89c0,.55-.28.73-.73.73h-22.68ZM482.86,94.33v-43.46c0-.54.27-.72.81-.72h11.16c.54,0,.72.09.72.72v43.46c0,.63-.18.81-.81.81h-10.98c-.54,0-.9-.17-.9-.81ZM489.3,45.34c-4.26,0-7.08-2.91-7.08-7.08s3-7.08,7.17-7.08,6.98,3,6.98,7.08c.01,4.26-2.89,7.08-7.07,7.08ZM503.81,50.14h9.89c.54,0,.81.18,1.09.72.46,1.27.82,3.18.91,5.08,3.6-4.24,8.87-6.69,14.43-6.71.63,0,.81.18.81.72v11.07c0,.54-.18.63-.91.63-6.53-.18-11.71,1.72-13.7,3.99v28.76c0,.63-.27.72-.81.72h-10.98c-.63,0-.91-.18-.91-.81v-31.22c0-3.99-.09-9.16-.45-12.43,0-.42.18-.52.63-.52ZM563.33,76h-17.78c.46,5.17,4.17,9.43,12.98,9.43,3.82.03,7.61-.67,11.16-2.09.36-.18.64-.09.64.36v8.62c0,.72-.19.91-.64,1.18-3.63,1.63-7.62,2.54-13.97,2.54-16.97,0-22.95-11.7-22.95-22.86,0-12.61,7.62-23.95,21.87-23.95s19.23,10.53,19.23,19.6c0,2.72-.18,5.08-.45,5.99-.09.45-.27.63-.72.73-1.29.27-4.74.45-9.37.45h0ZM545.55,67.11h11.8c2.91,0,4.26-.09,4.54-.19.09-.09.09-.45.09-.54,0-2.27-1.81-7.26-7.8-7.26-5.73.01-8.09,4.27-8.63,7.99h0ZM581.52,60.67h-5.44c-.37-.09-.55-.27-.55-.81v-9.17c0-.45.18-.54.55-.54h5.44v-1.45c0-4.26.63-7.53,1.91-10.25,2.36-5.08,6.71-8.44,14.15-8.44,1.82,0,3.54.18,4.63.54.55.28.64.45.64,1v8.98c0,.36-.18.64-.73.55-.81-.28-1.91-.28-2.63-.28-3.36,0-5.35,1.82-5.35,6.9v2.45h7.71c.63,0,.72.18.72.63v9.08c0,.54-.18.72-.72.81h-7.71v33.66c0,.54-.09.81-.91.81h-10.89c-.64,0-.82-.18-.82-.81v-33.66h0ZM605.9,83.53V31.63c0-.54.27-.81.91-.81h10.89c.54,0,.81.27.81.81v50.81c0,2.54.82,3.45,3,3.45.72,0,.91,0,1.63-.09.36,0,.45.09.45.54v7.89c0,.63-.09.81-.54,1.09-1.18.45-2.82.73-5.72.73-6.44,0-11.43-2.45-11.43-12.52h0ZM624.51,50.14h12.16c.46,0,.73.09.91.63,5.17,15.43,7.98,24.95,9.16,29.58,3-9.53,5.81-18.24,9.26-29.58.18-.45.54-.63,1-.63h10.89c.63,0,.72.27.54.81-6.44,20.23-16.51,45.37-23.32,60.79-.18.45-.36.63-1.18.72l-11.43.82c-.63,0-.81-.27-.54-.82,2.72-5.35,5.45-11.43,8.35-18.23.18-.55.27-.82.09-1.45-2.54-6.26-11.16-27.68-16.51-41.92-.19-.44.08-.72.62-.72Z"/>
    <g>
      <g id="a">
        <g id="b">
          <g id="c">
            <path class="cls-1" d="M24.11,0h87.95c13.32,0,24.11,10.8,24.11,24.11v84.54c0,13.32-10.8,24.11-24.11,24.11H24.11c-13.32,0-24.11-10.8-24.11-24.11V24.11C0,10.79,10.79,0,24.11,0Z"/>
          </g>
        </g>
      </g>
      <g id="d">
        <g id="e">
          <path class="cls-2" d="M74.33,88.94c0,.56-.46,1.02-1.02,1.02s-1.02-.46-1.02-1.02.46-1.02,1.02-1.02,1.02.45,1.02,1.02ZM72.29,91.39c-.3,0-.57.12-.79.28.04-.13.08-.27.08-.41,0-.71-.58-1.29-1.29-1.29s-1.29.58-1.29,1.29.58,1.29,1.29,1.29c.27,0,.5-.1.71-.24-.05.15-.1.31-.1.47,0,.77.62,1.39,1.39,1.39s1.39-.62,1.39-1.39c0-.77-.63-1.39-1.39-1.39h0ZM69.87,94.48c-.05-.84-.73-1.5-1.58-1.5-.15,0-.28.05-.42.08.25-.27.4-.62.4-1.01,0-.83-.67-1.51-1.51-1.51s-1.51.67-1.51,1.51.67,1.51,1.51,1.51c.13,0,.25-.04.37-.07-.27.29-.44.67-.44,1.09,0,.73.49,1.31,1.16,1.51,0,.02,0,.04,0,.06,0,.95.77,1.72,1.72,1.72s1.72-.77,1.72-1.72c0-.85-.61-1.52-1.41-1.67h0ZM65.89,96.03c.07-.2.13-.4.13-.62,0-.91-.7-1.64-1.59-1.73.22-.28.37-.62.37-1,0-.79-.56-1.41-1.3-1.58.34-.28.56-.69.56-1.16,0-.59-.34-1.08-.83-1.34.75-.03,1.35-.64,1.35-1.4s-.63-1.41-1.41-1.41-1.41.63-1.41,1.41c0,.53.3.97.73,1.22-.83.02-1.5.69-1.5,1.52,0,.71.5,1.29,1.16,1.46-.39.3-.66.75-.66,1.28,0,.83.63,1.49,1.43,1.6-.26.31-.43.69-.43,1.12,0,.84.61,1.52,1.4,1.69-.13.26-.22.55-.22.87,0,1.09.88,1.97,1.97,1.97s1.97-.88,1.97-1.97c.01-1.01-.75-1.81-1.72-1.93h0ZM45.68,83.9c0,.7-.4,1.29-.97,1.61.1-.02.2-.06.31-.06,1.04,0,1.88.84,1.88,1.87,0,.3-.08.57-.21.82.33-.28.74-.47,1.21-.47,1.02,0,1.84.82,1.86,1.83.2-.77.86-1.35,1.69-1.39-.17-.26-.3-.55-.3-.89,0-.91.74-1.65,1.65-1.65s1.65.74,1.65,1.65c0,.85-.65,1.52-1.47,1.61.25.32.42.69.42,1.12,0,.49-.2.92-.5,1.25.34.33.54.77.59,1.26.05-.47.26-.89.6-1.2-.38-.32-.63-.79-.63-1.32,0-.92.71-1.65,1.61-1.73-.23-.28-.38-.62-.38-1,0-.58.33-1.06.79-1.34-.68-.11-1.21-.67-1.21-1.39,0-.79.64-1.43,1.43-1.43s1.43.64,1.43,1.43c0,.5-.27.92-.66,1.18.79.1,1.4.74,1.4,1.56s-.6,1.43-1.37,1.55c.29.31.48.73.48,1.19s-.19.89-.49,1.21c.48.35.81.89.81,1.53,0,.35-.12.66-.28.94.63.36,1.08,1.01,1.08,1.79,0,.22-.06.43-.13.63.22.1.41.24.59.4-.2-.3-.34-.64-.34-1.03,0-.41.16-.77.38-1.08-.65-.27-1.12-.9-1.12-1.65,0-.53.24-1,.61-1.32-.5-.28-.85-.8-.85-1.41,0-.86.67-1.55,1.51-1.62-.31-.28-.52-.67-.52-1.12,0-.62.37-1.14.9-1.37-.08.01-.15.05-.23.05-.78,0-1.4-.63-1.4-1.41s.63-1.41,1.4-1.41,1.4.63,1.4,1.41c0,.57-.35,1.07-.84,1.28.09-.02.17-.05.27-.05.83,0,1.5.67,1.5,1.5,0,.77-.59,1.38-1.33,1.47.38.3.64.75.64,1.27,0,.45-.18.86-.48,1.15.58.3.99.88.99,1.58,0,.35-.13.66-.3.94.76.26,1.32.96,1.32,1.8,0,.24-.06.46-.13.67.91.27,1.59,1.07,1.59,2.07,0,1.21-.98,2.19-2.19,2.19-1.05,0-1.88-.75-2.1-1.73-.22,1.07-1.12,1.89-2.25,1.89-.92,0-1.7-.54-2.08-1.32-.39.87-1.26,1.48-2.27,1.48-.93,0-1.7-.53-2.14-1.28-.44.79-1.25,1.35-2.22,1.35s-1.72-.53-2.17-1.28c-.45.76-1.24,1.29-2.18,1.29-1.1,0-2.03-.7-2.39-1.67-.47.46-1.11.75-1.82.75-1.43,0-2.59-1.16-2.59-2.59,0-.11.05-.21.06-.31-.26.09-.54.17-.84.17-1.42,0-2.57-1.15-2.57-2.57,0-.56.21-1.04.51-1.46-1.27-.12-2.27-1.15-2.27-2.45,0-.99.59-1.83,1.42-2.23-.74-.41-1.26-1.18-1.26-2.08,0-1.31,1.04-2.36,2.34-2.41-.42-.42-.68-1-.68-1.64,0-1.3,1.05-2.35,2.35-2.35.04,0,.07.02.11.02-.45-.42-.75-1.01-.75-1.68,0-1.28,1.04-2.32,2.32-2.32.09,0,.17.04.27.05-.52-.42-.87-1.03-.87-1.75,0-1.26,1.02-2.29,2.29-2.29.15,0,.28.06.42.09-.58-.41-.99-1.05-.99-1.81,0-1.24,1.01-2.25,2.25-2.25.21,0,.39.07.58.12-.65-.39-1.11-1.07-1.11-1.88,0-1.23.99-2.22,2.22-2.22.26,0,.5.07.73.15-.72-.36-1.23-1.08-1.23-1.94,0-1.21.98-2.19,2.19-2.19.64,0,1.21.29,1.61.73.25-.11.52-.18.82-.18.65,0,1.2.33,1.58.8.26-.13.53-.22.84-.22.67,0,1.22.37,1.55.89.25-.15.53-.25.84-.25.79,0,1.43.55,1.62,1.28.17-.06.35-.11.54-.11.85,0,1.55.69,1.55,1.55,0,.45-.2.85-.51,1.13.16-.07.34-.11.53-.11.75,0,1.36.61,1.36,1.37,0,.37-.15.71-.39.95.22-.19.49-.32.81-.32.67,0,1.22.54,1.22,1.22s-.55,1.22-1.22,1.22-1.22-.54-1.22-1.22c0-.33.13-.63.35-.85-.24.22-.56.36-.91.36-.75,0-1.36-.61-1.36-1.36,0-.38.15-.72.4-.97-.18.08-.39.12-.6.12-.67,0-1.23-.43-1.44-1.03-.22.1-.46.17-.72.17-.55,0-1.02-.28-1.33-.69-.3.22-.65.37-1.06.37-.54,0-1.01-.23-1.35-.6-.31.2-.66.34-1.06.34-.53,0-1.01-.22-1.37-.55-.32.18-.66.31-1.05.31-.26,0-.49-.07-.72-.15.21.1.41.23.57.38.29-.16.61-.27.97-.27.61,0,1.14.27,1.51.69.29-.18.62-.32.98-.32.62,0,1.14.32,1.49.78.28-.2.61-.35.99-.35.74,0,1.35.47,1.6,1.12.2-.09.41-.14.64-.14.86,0,1.56.7,1.56,1.56,0,.32-.12.6-.28.84.12-.04.24-.08.38-.08.76,0,1.38.62,1.38,1.38,0,.22-.06.42-.16.61.19-.11.39-.2.63-.2.68,0,1.23.55,1.23,1.23s-.55,1.23-1.23,1.23-1.23-.55-1.23-1.23c0-.18.04-.35.11-.5-.22.14-.46.24-.73.24-.76,0-1.38-.62-1.38-1.38,0-.26.09-.48.21-.69-.15.05-.31.1-.48.1-.62,0-1.15-.37-1.4-.9-.25.14-.53.25-.84.25-.5,0-.94-.22-1.26-.57-.33.28-.75.47-1.21.47s-.92-.2-1.25-.5c-.35.27-.77.46-1.25.46-.28,0-.54-.06-.78-.16.23.1.43.24.61.41.32-.25.71-.42,1.15-.42.57,0,1.07.26,1.42.66.31-.27.7-.45,1.14-.45.69,0,1.28.41,1.56,1,.23-.13.47-.22.75-.22.87,0,1.57.7,1.57,1.57,0,.2-.05.39-.11.56.1-.02.19-.06.29-.06.77,0,1.4.63,1.4,1.4,0,.13-.04.26-.08.38.18-.1.38-.18.6-.18.68,0,1.24.56,1.24,1.24s-.56,1.24-1.24,1.24-1.24-.56-1.24-1.24c0-.1.03-.19.06-.29-.22.14-.46.24-.74.24-.77,0-1.4-.63-1.4-1.4,0-.15.04-.29.09-.42-.14.04-.28.09-.43.09-.57,0-1.06-.33-1.33-.79-.28.2-.61.34-.98.34-.46,0-.87-.19-1.18-.47-.17.18-.37.32-.59.42.11-.02.21-.07.33-.07.65,0,1.19.37,1.5.89.26-.18.55-.31.89-.31.87,0,1.58.71,1.58,1.58,0,.11-.04.21-.06.32.11-.02.21-.06.32-.06.78,0,1.41.63,1.41,1.41,0,.07-.03.13-.04.2.19-.11.39-.2.63-.2.68,0,1.24.56,1.24,1.24s-.56,1.24-1.24,1.24-1.24-.55-1.24-1.24c0-.03.02-.06.02-.1-.23.16-.48.27-.78.27-.78,0-1.41-.63-1.41-1.41,0-.06.03-.12.04-.18-.15.05-.3.09-.46.09-.53,0-.97-.28-1.26-.67-.31.26-.69.44-1.13.44s-.82-.17-1.12-.43c-.08.1-.15.2-.24.28.57.02,1.05.33,1.36.76.28-.24.63-.4,1.03-.4.89,0,1.61.72,1.61,1.61,0,.03,0,.05,0,.07.11-.03.21-.07.33-.07.78,0,1.42.64,1.42,1.42s-.64,1.42-1.42,1.42-1.36-.59-1.4-1.33c-.17.06-.34.11-.53.11-.48,0-.9-.22-1.2-.56-.32.32-.77.53-1.27.53-.41,0-.77-.16-1.08-.4-.04.07-.09.14-.14.2.48.06.89.3,1.18.65.3-.3.71-.49,1.17-.49.91,0,1.64.74,1.64,1.64s-.74,1.64-1.64,1.64c-.47,0-.88-.2-1.18-.51-.33.41-.82.68-1.39.68M44.88,93.22c.38.26.7.6.87,1.03.06-.09.11-.18.18-.27-.28-.34-.46-.76-.48-1.23-.15.2-.35.35-.57.47h0ZM49.29,93.75c.22.21.4.45.53.73.05-.11.13-.2.2-.3-.25-.24-.41-.54-.52-.87-.05.16-.13.3-.21.44h0ZM53.46,92.91c-.03.28-.11.54-.25.78.39.31.66.73.78,1.23.06-.24.16-.46.3-.65-.45-.31-.76-.79-.83-1.36h0ZM48.86,91.1c.3.25.52.58.64.96.12-.36.33-.67.61-.91-.26-.31-.44-.7-.45-1.14-.12.46-.4.84-.8,1.09h0ZM45.01,89.2c-.69,0-1.27-.39-1.59-.95,0,.08.05.15.05.23,0,.36-.11.68-.27.98.22-.07.44-.14.68-.14,1.13,0,2.04.9,2.08,2.03.17-.2.37-.36.6-.49-.34-.34-.54-.8-.54-1.32,0-.3.08-.57.21-.82-.33.29-.75.48-1.22.48ZM43.81,85.77c-.47,0-.89-.19-1.22-.48-.16.49-.48.88-.92,1.14.65.1,1.18.48,1.49,1.02,0-.05-.03-.09-.03-.14,0-.7.4-1.29.98-1.61-.1.03-.19.07-.3.07h0ZM46.39,72.09c-.43,0-.81-.17-1.13-.41-.08.08-.18.12-.28.19.48.03.92.22,1.25.54.16-.17.34-.3.55-.4-.13.03-.25.08-.39.08h0ZM44.6,68.27c-.16-.07-.3-.19-.44-.3-.08.05-.15.11-.24.16.24.02.47.05.68.14ZM46.28,60.31c.32,0,.61-.08.88-.2.37.4.88.65,1.46.65.33,0,.64-.1.91-.25.34.43.84.72,1.42.72.33,0,.63-.11.9-.27.3.48.8.81,1.41.81.22,0,.43-.05.62-.13.16.68.74,1.19,1.46,1.19.79,0,1.42-.61,1.5-1.38.19.51.66.88,1.24.88.73,0,1.33-.59,1.33-1.33s-.59-1.33-1.33-1.33c-.68,0-1.22.52-1.3,1.18-.19-.62-.76-1.08-1.44-1.08-.16,0-.3.05-.45.09-.12-.82-.79-1.46-1.64-1.46-.25,0-.48.06-.69.15-.31-.59-.91-1.01-1.62-1.01-.24,0-.48.05-.69.14-.36-.55-.94-.93-1.64-.93-.23,0-.44.06-.65.13-.39-.52-.99-.89-1.69-.89-1.19,0-2.15.96-2.15,2.15,0,1.21.98,2.17,2.16,2.17h0ZM47.97,56.26c.25,0,.49-.06.72-.14.36.48.9.81,1.55.81.27,0,.52-.06.76-.15.32.5.86.84,1.49.84.27,0,.51-.06.74-.17.27.55.83.94,1.48.94.18,0,.35-.05.52-.1.08.77.7,1.38,1.49,1.38.67,0,1.22-.44,1.43-1.05.21.47.67.8,1.22.8.74,0,1.33-.6,1.33-1.33s-.6-1.33-1.33-1.33c-.56,0-1.04.35-1.24.85-.22-.57-.76-.98-1.41-.98-.12,0-.23.04-.35.07-.02-.9-.75-1.63-1.66-1.63-.19,0-.36.05-.53.11-.26-.69-.91-1.18-1.69-1.18-.18,0-.34.05-.51.1-.32-.65-.97-1.1-1.75-1.1-.17,0-.32.06-.48.1-.37-.62-1.02-1.05-1.79-1.05-1.17,0-2.12.95-2.12,2.12,0,1.14.96,2.09,2.13,2.09h0ZM49.65,52.21c.19,0,.36-.06.54-.11.34.57.94.98,1.65.98.2,0,.38-.06.56-.11.29.6.89,1.02,1.6,1.02.21,0,.41-.05.6-.12.22.64.82,1.11,1.54,1.11.15,0,.29-.05.44-.09,0,.02,0,.04,0,.06,0,.83.67,1.51,1.51,1.51.58,0,1.06-.34,1.32-.81.2.49.68.83,1.24.83.74,0,1.34-.6,1.34-1.34s-.6-1.34-1.34-1.34c-.5,0-.91.28-1.14.68-.2-.6-.75-1.03-1.41-1.03-.11,0-.21.04-.32.06,0-.06.04-.11.04-.18,0-.91-.74-1.65-1.65-1.65-.15,0-.29.05-.43.09-.2-.78-.87-1.37-1.71-1.37-.13,0-.24.05-.36.07-.27-.74-.97-1.28-1.81-1.28-.11,0-.2.04-.3.06-.33-.71-1.04-1.22-1.88-1.22-1.15,0-2.08.93-2.08,2.08-.02,1.17.91,2.1,2.06,2.1h0ZM51.34,48.16c.13,0,.23-.05.35-.07.29.68.97,1.15,1.75,1.15.15,0,.29-.05.43-.09.24.7.88,1.21,1.66,1.21.17,0,.33-.05.49-.1.15.75.78,1.32,1.57,1.32.15,0,.28-.05.42-.08-.02.09-.06.18-.06.28,0,.83.67,1.5,1.5,1.5.5,0,.93-.27,1.2-.65.18.54.67.93,1.26.93.74,0,1.35-.6,1.35-1.35s-.6-1.35-1.35-1.35c-.43,0-.8.22-1.05.53-.17-.63-.73-1.11-1.42-1.11-.11,0-.2.04-.3.06.03-.13.08-.25.08-.39,0-.9-.73-1.63-1.63-1.63-.11,0-.22.04-.32.07-.11-.88-.82-1.56-1.73-1.56-.09,0-.17.04-.26.05-.2-.84-.92-1.47-1.82-1.47-.07,0-.12.03-.19.04-.28-.81-1.02-1.39-1.92-1.39-1.13,0-2.05.92-2.05,2.05,0,1.13.91,2.05,2.04,2.05h0ZM53.03,44.11c.09,0,.17-.04.25-.05.24.77.93,1.34,1.78,1.34.11,0,.21-.05.32-.07.16.8.83,1.41,1.68,1.41.13,0,.25-.05.37-.08.05.84.74,1.52,1.59,1.52.14,0,.27-.05.4-.08-.05.15-.1.32-.1.49,0,.82.66,1.49,1.48,1.49.58,0,1.07-.34,1.32-.83,0,.06-.03.11-.03.17,0,.75.61,1.35,1.35,1.35s1.35-.61,1.35-1.35-.61-1.36-1.35-1.36c-.53,0-.98.31-1.2.75,0-.08.04-.14.04-.22,0-.82-.66-1.48-1.48-1.48-.1,0-.19.04-.29.06.07-.19.12-.38.12-.6,0-.89-.72-1.61-1.61-1.61-.08,0-.15.03-.22.05h0c0-.98-.78-1.76-1.75-1.76-.06,0-.11.03-.16.03-.12-.93-.88-1.66-1.84-1.66-.04,0-.06.02-.1.02-.21-.89-.97-1.58-1.93-1.58-1.11,0-2.02.9-2.02,2.02s.91,2.03,2.03,2.03h0ZM54.74,40.08c.08,0,.15-.04.22-.05.14.9.88,1.6,1.81,1.6.12,0,.22-.05.34-.07,0,.95.78,1.72,1.73,1.72.19,0,.37-.05.54-.11-.02.1-.06.2-.06.3,0,.89.73,1.62,1.62,1.62.27,0,.51-.08.73-.2-.21.26-.35.57-.35.93,0,.83.67,1.5,1.5,1.5s1.5-.67,1.5-1.5-.67-1.5-1.5-1.5c-.24,0-.45.06-.65.16.23-.28.38-.62.38-1.01,0-.89-.72-1.62-1.62-1.62-.16,0-.3.05-.44.09.03-.13.08-.26.08-.4,0-.96-.78-1.74-1.74-1.74-.08,0-.15.03-.22.05,0-.03.02-.05.02-.08,0-1.03-.83-1.86-1.86-1.86-.03,0-.06.02-.09.02-.09-1.01-.92-1.8-1.95-1.8-1.09,0-1.98.89-1.98,1.98s.9,1.97,1.99,1.97h0ZM57.22,36.48c.13,0,.25-.05.37-.08,0,.06-.04.12-.04.19,0,1.02.83,1.85,1.85,1.85.2,0,.39-.06.57-.11-.05.16-.1.32-.1.5,0,.97.78,1.75,1.75,1.75.39,0,.74-.15,1.03-.37-.26.29-.43.67-.43,1.09,0,.92.74,1.66,1.66,1.66s1.66-.74,1.66-1.66-.74-1.66-1.66-1.66c-.37,0-.69.14-.97.34.28-.31.46-.71.46-1.16,0-.97-.78-1.75-1.75-1.75-.17,0-.33.05-.48.1.06-.19.12-.38.12-.58,0-1.02-.83-1.85-1.85-1.85-.1,0-.19.04-.29.06,0-.09.05-.17.05-.27,0-1.08-.87-1.95-1.95-1.95s-1.95.87-1.95,1.95c0,1.07.87,1.95,1.95,1.95h0ZM60.6,33.72c.22,0,.42-.06.62-.12-.11.23-.18.49-.18.77,0,1.02.82,1.84,1.84,1.84s1.84-.82,1.84-1.84-.82-1.84-1.84-1.84c-.2,0-.39.06-.57.12.12-.25.21-.53.21-.83,0-1.06-.86-1.91-1.92-1.91s-1.92.86-1.92,1.91.86,1.9,1.92,1.9h0ZM64.6,32.01c1.04,0,1.88-.84,1.88-1.88s-.84-1.88-1.88-1.88-1.88.84-1.88,1.88.84,1.88,1.88,1.88ZM68.91,31.5c1.02,0,1.85-.83,1.85-1.85s-.83-1.85-1.85-1.85-1.85.83-1.85,1.85.83,1.85,1.85,1.85ZM73.19,32.22c1,0,1.81-.81,1.81-1.81s-.81-1.81-1.81-1.81-1.81.81-1.81,1.81.81,1.81,1.81,1.81ZM78.62,35.77c-.17-.05-.34-.11-.53-.11-.99,0-1.8.81-1.8,1.8,0,.25.05.48.14.7-.13-.03-.25-.08-.38-.08-.99,0-1.8.81-1.8,1.8,0,.38.14.71.34.99-.12-.02-.22-.07-.35-.07-.98,0-1.78.8-1.78,1.78,0,.44.18.84.45,1.15-.15-.05-.31-.1-.47-.1-.94,0-1.7.76-1.7,1.7s.76,1.7,1.7,1.7,1.7-.76,1.7-1.7c0-.42-.17-.79-.42-1.09.17.05.33.1.52.1.98,0,1.78-.8,1.78-1.78,0-.37-.14-.69-.33-.98.12.03.23.07.36.07.99,0,1.8-.81,1.8-1.8,0-.25-.05-.49-.14-.7.13.03.25.08.38.08.99,0,1.8-.8,1.8-1.8,0-.19-.05-.36-.11-.54.16.05.32.1.49.1.97,0,1.75-.78,1.75-1.75s-.78-1.75-1.75-1.75-1.75.78-1.75,1.75c0,.21.05.37.1.53h0ZM96.35,75.08c0,.77.62,1.39,1.39,1.39s1.39-.62,1.39-1.39-.62-1.39-1.39-1.39-1.39.63-1.39,1.39ZM98.1,79.09c0,.74.6,1.34,1.34,1.34s1.34-.6,1.34-1.34-.6-1.34-1.34-1.34-1.34.6-1.34,1.34ZM99.84,83.1c0,.71.57,1.28,1.28,1.28s1.28-.57,1.28-1.28-.57-1.28-1.28-1.28-1.28.57-1.28,1.28ZM101.51,87.15c0,.68.55,1.23,1.23,1.23s1.23-.55,1.23-1.23-.55-1.23-1.23-1.23c-.68,0-1.23.55-1.23,1.23ZM102.87,90.29c-.65,0-1.18.53-1.18,1.18s.53,1.18,1.18,1.18,1.18-.53,1.18-1.18-.53-1.18-1.18-1.18ZM101.08,94.27c-.62,0-1.13.5-1.13,1.13s.5,1.13,1.13,1.13,1.13-.5,1.13-1.13c0-.63-.51-1.13-1.13-1.13ZM98.04,97.33c-.59,0-1.07.48-1.07,1.07s.48,1.07,1.07,1.07,1.07-.48,1.07-1.07c0-.58-.48-1.07-1.07-1.07ZM94.6,98.23c-.69,0-1.25.56-1.25,1.25s.56,1.25,1.25,1.25,1.25-.56,1.25-1.25c0-.69-.55-1.25-1.25-1.25h0ZM65.03,33.29c0,1.01.82,1.83,1.83,1.83s1.83-.82,1.83-1.83-.82-1.83-1.83-1.83-1.83.82-1.83,1.83ZM69.16,33.48c0,1,.81,1.82,1.82,1.82s1.82-.81,1.82-1.82-.81-1.82-1.82-1.82-1.82.81-1.82,1.82ZM74.84,33.11c-1,0-1.81.81-1.81,1.81,0,.46.18.87.47,1.18-.22-.09-.45-.14-.7-.14-.99,0-1.79.8-1.79,1.79s.8,1.79,1.79,1.79,1.79-.8,1.79-1.79c0-.45-.18-.85-.46-1.17.22.09.46.15.72.15,1,0,1.81-.81,1.81-1.81,0-.37-.14-.7-.33-.98.23.11.48.18.76.18.98,0,1.78-.8,1.78-1.78s-.8-1.78-1.78-1.78-1.78.8-1.78,1.78c0,.36.14.68.32.97-.25-.13-.5-.2-.79-.2h0ZM96.43,77.57c-.76,0-1.38.62-1.38,1.38s.62,1.38,1.38,1.38,1.38-.62,1.38-1.38-.61-1.38-1.38-1.38ZM99.36,82.76c0-.73-.59-1.32-1.32-1.32s-1.32.59-1.32,1.32.59,1.32,1.32,1.32,1.32-.58,1.32-1.32ZM100.9,86.58c0-.7-.57-1.26-1.26-1.26s-1.26.57-1.26,1.26.57,1.26,1.26,1.26c.7,0,1.26-.57,1.26-1.26ZM100.64,91.77c.66,0,1.2-.54,1.2-1.2s-.54-1.2-1.2-1.2-1.2.54-1.2,1.2c0,.66.53,1.2,1.2,1.2ZM66.92,37.18c0-.97-.79-1.76-1.76-1.76s-1.76.79-1.76,1.76.79,1.76,1.76,1.76c.97.01,1.76-.78,1.76-1.76ZM69.02,35.03c-.98,0-1.78.8-1.78,1.78s.79,1.77,1.78,1.77,1.78-.8,1.78-1.77-.8-1.78-1.78-1.78ZM93.66,82.59c0,.75.61,1.36,1.36,1.36s1.36-.61,1.36-1.36-.61-1.36-1.36-1.36-1.36.61-1.36,1.36ZM95.23,86.19c0,.71.58,1.29,1.29,1.29s1.29-.58,1.29-1.29-.58-1.29-1.29-1.29-1.29.58-1.29,1.29ZM99.14,89.84c0-.68-.55-1.23-1.23-1.23s-1.23.55-1.23,1.23.55,1.23,1.23,1.23,1.23-.55,1.23-1.23ZM99.07,92.65c-.64,0-1.16.52-1.16,1.16s.52,1.16,1.16,1.16,1.16-.52,1.16-1.16c0-.64-.51-1.16-1.16-1.16ZM69.48,90.12c.69,0,1.25-.56,1.25-1.25s-.56-1.25-1.25-1.25-1.25.56-1.25,1.25.56,1.25,1.25,1.25ZM66.33,90.46c.78,0,1.41-.63,1.41-1.41s-.63-1.41-1.41-1.41-1.41.63-1.41,1.41.63,1.41,1.41,1.41ZM67.41,42.06c.94,0,1.7-.76,1.7-1.7s-.76-1.7-1.7-1.7-1.7.76-1.7,1.7.76,1.7,1.7,1.7ZM72.78,40.81c0-.96-.78-1.74-1.74-1.74s-1.74.78-1.74,1.74.78,1.74,1.74,1.74,1.74-.77,1.74-1.74ZM92.11,81.29c-.77,0-1.39.62-1.39,1.39s.62,1.39,1.39,1.39,1.39-.62,1.39-1.39-.62-1.39-1.39-1.39ZM92.21,86.06c0,.73.59,1.32,1.32,1.32s1.32-.59,1.32-1.32-.59-1.32-1.32-1.32c-.73.01-1.32.6-1.32,1.32ZM96.18,89.46c0-.69-.56-1.25-1.25-1.25s-1.25.56-1.25,1.25.56,1.25,1.25,1.25c.69,0,1.25-.57,1.25-1.25ZM96.69,94.08c.65,0,1.18-.53,1.18-1.17s-.53-1.18-1.18-1.18-1.18.53-1.18,1.18.53,1.17,1.18,1.17ZM98.06,96.23c0-.61-.49-1.1-1.1-1.1s-1.1.49-1.1,1.1.49,1.1,1.1,1.1,1.1-.49,1.1-1.1ZM68.81,86.2c0-.73-.59-1.32-1.32-1.32s-1.32.59-1.32,1.32.59,1.32,1.32,1.32c.73,0,1.32-.59,1.32-1.32ZM49.47,88.07c.91,0,1.65-.74,1.65-1.65s-.74-1.65-1.65-1.65-1.65.74-1.65,1.65c0,.91.73,1.65,1.65,1.65ZM48.98,83.77c0-.92-.74-1.66-1.66-1.66s-1.66.74-1.66,1.66.74,1.66,1.66,1.66,1.66-.74,1.66-1.66ZM64.26,44.2c0,.87.7,1.57,1.57,1.57s1.57-.7,1.57-1.57-.7-1.57-1.57-1.57-1.57.7-1.57,1.57ZM67.63,44.02c0,.9.73,1.64,1.64,1.64s1.64-.73,1.64-1.64-.73-1.64-1.64-1.64c-.9.01-1.64.74-1.64,1.64ZM89.29,86.2c0,.74.6,1.35,1.35,1.35s1.35-.6,1.35-1.35-.6-1.35-1.35-1.35-1.35.61-1.35,1.35ZM93.23,89.39c0-.7-.57-1.27-1.27-1.27s-1.27.57-1.27,1.27.57,1.27,1.27,1.27,1.27-.57,1.27-1.27ZM94.06,91.28c-.66,0-1.19.53-1.19,1.19s.53,1.19,1.19,1.19,1.19-.53,1.19-1.19c0-.66-.53-1.19-1.19-1.19ZM94.43,94.28c-.61,0-1.11.5-1.11,1.11s.5,1.11,1.11,1.11,1.11-.5,1.11-1.11-.49-1.11-1.11-1.11ZM72,86.88c0-.61-.49-1.1-1.1-1.1s-1.11.49-1.11,1.1.49,1.1,1.11,1.1c.6,0,1.1-.49,1.1-1.1ZM68.3,84.27c0,.65.53,1.18,1.18,1.18s1.18-.53,1.18-1.18-.53-1.18-1.18-1.18-1.18.52-1.18,1.18ZM65.27,85.78c.69,0,1.25-.56,1.25-1.26s-.56-1.25-1.25-1.25-1.26.56-1.26,1.25.56,1.26,1.26,1.26ZM62.07,85.8c.73,0,1.33-.6,1.33-1.33s-.6-1.33-1.33-1.33-1.33.6-1.33,1.33.59,1.33,1.33,1.33ZM52.53,85.48c.79,0,1.43-.64,1.43-1.43s-.64-1.43-1.43-1.43-1.43.64-1.43,1.43.64,1.43,1.43,1.43ZM51.85,81.73c0-.79-.64-1.42-1.42-1.42s-1.42.64-1.42,1.42.64,1.42,1.42,1.42c.78,0,1.42-.63,1.42-1.42ZM58.17,63.94c0-.74-.6-1.35-1.34-1.35s-1.35.6-1.35,1.35.6,1.34,1.35,1.34c.73.01,1.34-.59,1.34-1.34ZM66.11,49.16c.79,0,1.44-.64,1.44-1.44s-.64-1.44-1.44-1.44-1.44.64-1.44,1.44.65,1.44,1.44,1.44ZM69.27,46.13c-.84,0-1.53.68-1.53,1.53s.68,1.53,1.53,1.53,1.53-.68,1.53-1.53-.69-1.53-1.53-1.53ZM88.22,86.08c-.75,0-1.36.61-1.36,1.36s.61,1.36,1.36,1.36,1.36-.61,1.36-1.36-.61-1.36-1.36-1.36ZM89.43,91.68c.71,0,1.28-.57,1.28-1.28s-.57-1.28-1.28-1.28-1.28.57-1.28,1.28.58,1.28,1.28,1.28ZM92.59,93.15c0-.66-.54-1.2-1.2-1.2s-1.2.54-1.2,1.2.54,1.2,1.2,1.2c.67-.01,1.2-.54,1.2-1.2ZM91.96,95.39c-.61,0-1.11.5-1.11,1.11s.5,1.11,1.11,1.11,1.11-.5,1.11-1.11-.49-1.11-1.11-1.11ZM67.66,81.2c-.63,0-1.15.51-1.15,1.15s.51,1.15,1.15,1.15,1.15-.51,1.15-1.15c0-.64-.51-1.15-1.15-1.15ZM64.74,82.96c.66,0,1.19-.53,1.19-1.19s-.53-1.19-1.19-1.19-1.19.53-1.19,1.19.53,1.19,1.19,1.19ZM61.75,82.96c.68,0,1.23-.55,1.23-1.23s-.55-1.23-1.23-1.23-1.23.55-1.23,1.23.55,1.23,1.23,1.23ZM58.76,82.99c.68,0,1.24-.55,1.24-1.24s-.56-1.24-1.24-1.24-1.24.56-1.24,1.24.56,1.24,1.24,1.24ZM55.78,82.9c.68,0,1.24-.55,1.24-1.24s-.56-1.24-1.24-1.24-1.24.55-1.24,1.24c0,.69.56,1.24,1.24,1.24ZM54.83,79.8c0-.69-.56-1.24-1.24-1.24s-1.24.55-1.24,1.24.56,1.24,1.24,1.24,1.24-.55,1.24-1.24ZM58.53,67.2c.66,0,1.2-.54,1.2-1.2s-.54-1.2-1.2-1.2-1.2.54-1.2,1.2.53,1.2,1.2,1.2ZM58.54,63.26c0,.65.53,1.18,1.18,1.18s1.19-.53,1.19-1.18-.53-1.18-1.19-1.18-1.18.53-1.18,1.18ZM59.74,60.53c0,.65.53,1.18,1.18,1.18s1.18-.53,1.18-1.18-.53-1.18-1.18-1.18-1.18.53-1.18,1.18ZM60.92,57.8c0,.66.54,1.2,1.2,1.2s1.2-.54,1.2-1.2-.54-1.2-1.2-1.2c-.66,0-1.2.54-1.2,1.2ZM62.1,55.07c0,.67.54,1.21,1.21,1.21s1.21-.54,1.21-1.21-.54-1.21-1.21-1.21-1.21.54-1.21,1.21ZM63.45,52.42c0,.68.55,1.23,1.23,1.23s1.23-.55,1.23-1.23-.55-1.23-1.23-1.23-1.23.55-1.23,1.23ZM68.54,51.06c0-.71-.57-1.28-1.28-1.28s-1.28.57-1.28,1.28.57,1.28,1.28,1.28,1.28-.57,1.28-1.28ZM71.48,51.82c0-.77-.63-1.4-1.4-1.4s-1.4.63-1.4,1.4.63,1.4,1.4,1.4,1.4-.62,1.4-1.4ZM88.26,95.03c0,.66.54,1.2,1.2,1.2s1.2-.54,1.2-1.2-.54-1.2-1.2-1.2-1.2.53-1.2,1.2ZM72.86,86.81c.55,0,.99-.44.99-.99s-.44-.99-.99-.99-.99.44-.99.99c0,.55.44.99.99.99ZM71.68,82.35c-.53,0-.96.43-.96.96s.43.96.96.96.96-.43.96-.96c0-.53-.43-.96-.96-.96ZM69.84,80.31c-.51,0-.93.41-.93.93s.41.93.93.93.93-.41.93-.93-.42-.93-.93-.93ZM67.49,80.67c.49,0,.9-.4.9-.9s-.4-.9-.9-.9-.9.4-.9.9.4.9.9.9ZM64.81,79.95c.49,0,.89-.4.89-.89s-.4-.89-.89-.89-.89.4-.89.89c0,.49.4.89.89.89ZM61.14,79c0,.49.4.89.89.89s.89-.4.89-.89-.4-.89-.89-.89c-.49,0-.89.4-.89.89ZM59.25,78.12c-.49,0-.89.4-.89.89s.4.89.89.89.89-.4.89-.89-.4-.89-.89-.89ZM57.72,78c0-.49-.4-.9-.9-.9s-.9.4-.9.9.4.9.9.9c.5,0,.9-.41.9-.9ZM56.06,75.36c0,.5.4.9.9.9s.9-.4.9-.9-.4-.9-.9-.9-.9.4-.9.9ZM59,72.82c0-.5-.41-.91-.91-.91s-.91.41-.91.91.41.91.91.91.91-.41.91-.91ZM59.22,69.34c-.52,0-.94.42-.94.94s.42.94.94.94.94-.42.94-.94-.42-.94-.94-.94ZM61.32,67.74c0-.53-.43-.97-.97-.97s-.97.43-.97.97.43.97.97.97.97-.43.97-.97ZM61.48,64.21c-.55,0-.99.45-.99.99s.45.99.99.99.99-.44.99-.99c0-.55-.44-.99-.99-.99ZM62.61,61.64c-.57,0-1.02.46-1.02,1.02s.46,1.02,1.02,1.02,1.02-.46,1.02-1.02c0-.56-.45-1.02-1.02-1.02ZM64.8,60.13c0-.58-.47-1.05-1.05-1.05s-1.05.47-1.05,1.05.47,1.05,1.05,1.05,1.05-.47,1.05-1.05ZM64.88,56.5c-.6,0-1.08.48-1.08,1.08s.48,1.08,1.08,1.08,1.08-.48,1.08-1.08-.49-1.08-1.08-1.08ZM67.28,55.14c0-.61-.5-1.11-1.11-1.11s-1.11.5-1.11,1.11.5,1.11,1.11,1.11,1.11-.49,1.11-1.11ZM69.9,54.95c0-.64-.52-1.16-1.16-1.16s-1.16.52-1.16,1.16.52,1.16,1.16,1.16,1.16-.52,1.16-1.16ZM89.65,97.6c0,.77-.62,1.39-1.39,1.39s-1.39-.62-1.39-1.39c0-.19.04-.37.11-.54-.23.14-.48.24-.77.24-.86,0-1.55-.7-1.55-1.55,0-.27.09-.51.21-.74-.03,0-.06.02-.1.02-.91,0-1.65-.74-1.65-1.65,0-.33.12-.63.29-.89-.81-.15-1.44-.83-1.44-1.69,0-.3.1-.57.23-.82-.79-.21-1.38-.9-1.38-1.76,0-.28.07-.54.18-.77-.75-.26-1.3-.96-1.3-1.8,0-.27.06-.52.16-.76-.72-.29-1.24-.99-1.24-1.82,0-.26.06-.5.15-.73-.72-.3-1.23-1.01-1.23-1.84,0-.25.06-.49.14-.71-.72-.32-1.23-1.03-1.23-1.87,0-.25.06-.48.14-.69-.72-.33-1.22-1.04-1.22-1.88,0-.25.06-.47.14-.69-.71-.34-1.21-1.05-1.21-1.89,0-.26.06-.51.15-.74-.68-.34-1.16-1.02-1.16-1.83,0-.3.07-.57.18-.83-.66-.32-1.12-.97-1.12-1.75,0-.34.11-.65.27-.93-.66-.26-1.14-.9-1.14-1.65,0-.4.16-.75.38-1.05-.71-.16-1.25-.77-1.25-1.53,0-.47.21-.88.53-1.17-.77-.01-1.39-.63-1.39-1.4s.63-1.41,1.41-1.41c.51,0,.94.29,1.19.7.08-.21.19-.39.34-.55-.64-.06-1.16-.48-1.37-1.06-.12.57-.6,1-1.2,1-.69,0-1.25-.56-1.25-1.25s.56-1.25,1.25-1.25c.51,0,.94.31,1.14.74.06-.43.28-.79.61-1.05-.05.01-.09.03-.15.03-.84,0-1.52-.68-1.52-1.52s.68-1.52,1.52-1.52c.16,0,.32.05.46.09-.16-.26-.27-.55-.27-.87,0-.47.19-.89.49-1.2-.12.03-.24.08-.38.08-.9,0-1.62-.73-1.62-1.62s.73-1.62,1.62-1.62c.36,0,.68.14.96.35,0-.02,0-.03,0-.04,0-.98.79-1.77,1.77-1.77.07,0,.13.03.19.04-.11-.23-.18-.49-.18-.76,0-1,.81-1.81,1.81-1.81.06,0,.11.03.17.03-.08-.21-.13-.43-.13-.66,0-1,.81-1.81,1.81-1.81.1,0,.19.04.29.06-.03-.12-.08-.24-.08-.37,0-.99.8-1.79,1.79-1.79.15,0,.28.05.42.08,0-.06-.03-.1-.03-.16,0-.95.77-1.71,1.71-1.71s1.71.77,1.71,1.71-.77,1.71-1.71,1.71c-.13,0-.24-.05-.36-.07,0,.08.04.14.04.22,0,.99-.8,1.78-1.79,1.78-.09,0-.18-.04-.27-.05.03.13.08.26.08.4,0,1-.81,1.81-1.81,1.81-.06,0-.11-.03-.17-.03.08.2.13.42.13.66,0,.15-.05.28-.08.42.28-.64.92-1.09,1.67-1.09.12,0,.22.05.33.07,0-.05-.03-.1-.03-.15,0-.98.79-1.77,1.77-1.77.18,0,.34.05.5.1,0-.92.75-1.67,1.68-1.67s1.68.75,1.68,1.68-.75,1.68-1.68,1.68c-.15,0-.28-.05-.42-.08,0,.02,0,.04,0,.06,0,.98-.79,1.77-1.77,1.77-.1,0-.19-.04-.29-.06,0,.07.04.12.04.19,0,1.01-.82,1.82-1.82,1.82-.06,0-.12-.03-.18-.04.03.14.09.28.09.43,0,.72-.42,1.33-1.03,1.63.19-.06.38-.12.59-.12.08,0,.15.04.23.05,0-.06-.04-.12-.04-.18,0-1.01.82-1.84,1.84-1.84.15,0,.28.05.42.09.03-.94.79-1.7,1.74-1.7.23,0,.45.05.65.13.08-.83.76-1.49,1.61-1.49.91,0,1.65.74,1.65,1.65s-.74,1.65-1.65,1.65c-.19,0-.36-.05-.53-.11-.04.93-.8,1.67-1.73,1.67-.12,0-.22-.04-.33-.07v.02c0,1.01-.82,1.84-1.84,1.84-.07,0-.13-.03-.2-.04,0,.07.04.14.04.21,0,.69-.39,1.26-.94,1.59.15-.04.3-.09.47-.09.12,0,.23.05.34.07.02-.98.81-1.77,1.79-1.77.21,0,.4.05.59.12.1-.85.79-1.52,1.67-1.52.29,0,.55.09.79.22.11-.78.76-1.39,1.57-1.39.89,0,1.61.72,1.61,1.61s-.72,1.61-1.61,1.61c-.25,0-.48-.07-.69-.17-.1.85-.79,1.52-1.67,1.52-.17,0-.33-.05-.48-.1-.06.93-.82,1.68-1.78,1.68-.09,0-.16-.04-.24-.05,0,.02,0,.03,0,.04,0,.73-.43,1.35-1.03,1.66.18-.06.35-.11.55-.11.18,0,.35.05.51.1.08-.89.81-1.6,1.72-1.6.27,0,.52.07.75.18.14-.78.79-1.38,1.61-1.38.35,0,.66.13.93.32.14-.73.75-1.29,1.52-1.29.87,0,1.58.71,1.58,1.58s-.71,1.58-1.58,1.58c-.31,0-.59-.12-.84-.27-.12.8-.78,1.42-1.62,1.42-.23,0-.45-.05-.65-.14-.13.84-.82,1.5-1.7,1.5-.15,0-.27-.05-.41-.08-.05.97-.84,1.75-1.82,1.75-.09,0-.17-.04-.25-.05-.02.48-.21.91-.51,1.23.16.01.31.05.45.09.14-.84.84-1.5,1.72-1.5.24,0,.47.05.68.14.13-.8.8-1.43,1.64-1.43.33,0,.63.12.89.29.16-.73.78-1.29,1.56-1.29.41,0,.78.17,1.07.42.16-.68.75-1.2,1.48-1.2.85,0,1.55.69,1.55,1.55s-.69,1.55-1.55,1.55c-.38,0-.71-.15-.98-.38-.15.74-.77,1.32-1.56,1.32-.3,0-.57-.11-.81-.25-.15.79-.81,1.4-1.64,1.4-.21,0-.41-.05-.59-.12-.11.88-.83,1.57-1.73,1.57-.14,0-.27-.05-.41-.08-.05.45-.22.86-.52,1.16.25,0,.49.05.7.14.18-.75.83-1.32,1.64-1.32.31,0,.59.1.84.25.15-.76.79-1.33,1.58-1.33.4,0,.75.16,1.04.4.17-.68.77-1.2,1.5-1.2.48,0,.9.23,1.19.57.16-.66.73-1.17,1.44-1.17.84,0,1.51.68,1.51,1.51s-.68,1.51-1.51,1.51c-.45,0-.84-.21-1.12-.52-.16.71-.76,1.25-1.51,1.25-.37,0-.7-.15-.97-.36-.17.74-.79,1.29-1.58,1.29-.28,0-.53-.09-.76-.21-.14.81-.81,1.43-1.66,1.43-.2,0-.38-.05-.56-.11-.08.49-.34.9-.73,1.18.09-.01.17-.05.26-.05.32,0,.61.11.87.26.18-.72.8-1.26,1.58-1.26.38,0,.71.15.99.36.16-.71.77-1.24,1.53-1.24.47,0,.89.22,1.18.54.18-.65.75-1.14,1.46-1.14.57,0,1.04.32,1.31.78.14-.67.71-1.18,1.42-1.18.82,0,1.48.66,1.48,1.48s-.66,1.48-1.48,1.48c-.54,0-.99-.3-1.25-.73-.14.71-.73,1.25-1.48,1.25-.45,0-.84-.2-1.12-.5-.18.69-.77,1.21-1.52,1.21-.35,0-.66-.14-.93-.33-.16.75-.79,1.33-1.59,1.33-.27,0-.51-.08-.74-.19-.17.81-.85,1.43-1.7,1.43-.07,0-.13-.03-.2-.04.08.19.11.39.12.6.3-.48.8-.82,1.4-.82.39,0,.73.15,1.01.37.18-.69.77-1.21,1.52-1.21.45,0,.86.19,1.15.49.17-.67.75-1.17,1.47-1.17.56,0,1.03.32,1.3.76.15-.66.72-1.17,1.43-1.17s1.23.46,1.41,1.07c.09-.71.67-1.28,1.41-1.28.8,0,1.44.65,1.44,1.44s-.65,1.44-1.44,1.44c-.64,0-1.17-.43-1.35-1.01-.09.75-.7,1.33-1.46,1.33-.54,0-.99-.3-1.25-.73-.15.69-.74,1.23-1.48,1.23-.43,0-.81-.17-1.09-.45-.17.7-.77,1.23-1.52,1.23-.35,0-.66-.14-.92-.33-.16.75-.8,1.33-1.61,1.33-.14,0-.26-.05-.39-.08.07.19.12.38.12.6,0,.58-.3,1.07-.74,1.38.08-.01.15-.05.23-.05.22,0,.43.05.62.12-.05-.15-.09-.3-.09-.46,0-.88.71-1.58,1.58-1.58.46,0,.87.2,1.16.52.16-.68.74-1.19,1.46-1.19.55,0,1.01.31,1.28.74.14-.68.71-1.21,1.43-1.21s1.25.48,1.41,1.12c.06-.73.66-1.32,1.42-1.32.8,0,1.44.64,1.44,1.44s-.65,1.44-1.44,1.44c-.67,0-1.2-.46-1.37-1.08-.06.76-.68,1.36-1.46,1.36-.53,0-.97-.29-1.23-.7-.13.71-.73,1.26-1.48,1.26-.44,0-.82-.19-1.1-.48-.16.71-.76,1.25-1.52,1.25-.21,0-.4-.05-.59-.12.05.16.1.32.1.49,0,.9-.73,1.62-1.62,1.62-.41,0-.77-.16-1.05-.41-.07.17-.18.32-.31.46.49.06.89.33,1.15.72.22-.57.77-.97,1.42-.97.3,0,.56.11.8.26-.05-.14-.09-.29-.09-.45,0-.83.67-1.5,1.5-1.5.56,0,1.03.32,1.29.77.1-.71.69-1.26,1.42-1.26.69,0,1.24.48,1.39,1.12.02-.77.64-1.38,1.41-1.38s1.42.64,1.42,1.42-.64,1.42-1.42,1.42c-.67,0-1.2-.47-1.35-1.08-.02.79-.66,1.42-1.45,1.42-.54,0-.99-.31-1.25-.74-.1.74-.7,1.31-1.46,1.31-.29,0-.55-.1-.78-.25.05.15.09.3.09.46,0,.85-.69,1.53-1.53,1.53-.52,0-.95-.27-1.23-.66-.09.26-.23.49-.42.67.71,0,1.29.49,1.47,1.15.13-.67.69-1.18,1.39-1.18.38,0,.72.15.98.39-.04-.14-.09-.28-.09-.43,0-.79.64-1.42,1.42-1.42s1.42.64,1.42,1.42-.64,1.42-1.42,1.42c-.37,0-.71-.15-.96-.39.05.14.09.29.09.45,0,.8-.65,1.45-1.45,1.45-.65,0-1.19-.44-1.37-1.04-.09.49-.38.9-.82,1.11.14-.05.29-.09.44-.09.81,0,1.47.66,1.47,1.47s-.66,1.47-1.47,1.47c-.31,0-.58-.12-.81-.28-.04.2-.11.39-.21.56.35.11.64.32.85.61.17-.56.68-.98,1.3-.98.76,0,1.38.62,1.38,1.38s-.62,1.38-1.38,1.38c-.39,0-.73-.16-.98-.41-.05.25-.14.47-.28.67.52.12.96.45,1.17.94.09-.62.61-1.11,1.26-1.11.71,0,1.29.58,1.29,1.29s-.58,1.29-1.29,1.29c-.51,0-.93-.3-1.15-.72-.02.27-.1.5-.23.72,0,0,.02-.01.04-.01.86,0,1.55.7,1.55,1.55,0,.24-.06.46-.16.66.2-.11.42-.19.66-.19.78.07,1.4.69,1.4,1.46h0ZM75.71,49.34c.13-.03.25-.08.38-.08.06,0,.11.03.17.03-.04-.14-.08-.28-.09-.43-.12.2-.28.35-.46.48h0ZM84.61,86.09c-.15.05-.31.1-.48.1-.24,0-.46-.06-.66-.16-.03.17-.07.33-.15.47.21.08.4.2.57.35.14-.33.4-.6.72-.76h0ZM83.03,83.53s-.02.01-.03.01c-.19,0-.36-.05-.53-.11-.03.15-.04.31-.1.44.12.05.21.14.32.21.07-.21.19-.4.34-.55h0ZM83.62,77.3c-.09.01-.17.05-.27.05-.32,0-.6-.11-.85-.26-.05.12-.14.21-.21.32.32.08.63.21.85.44.11-.22.27-.4.48-.55h0ZM80.82,57.47c-.06,0-.1-.03-.16-.03,0,.01,0,.02,0,.04,0,.49-.2.93-.5,1.27.09.01.17.03.26.05.06-.64.43-1.16.96-1.45-.18.06-.36.12-.57.12h0ZM79.41,54.06c-.06,0-.11-.03-.17-.03,0,.09.05.16.05.25,0,.12-.05.22-.07.33.16-.27.38-.48.65-.64-.15.03-.3.09-.46.09ZM78.58,50.52c-.19.06-.37.12-.58.12-.07,0-.12-.03-.18-.04.04.16.1.31.1.49,0,.01,0,.02,0,.03.17-.25.39-.46.67-.6h0ZM76.55,47.23c-.08,0-.14-.04-.22-.04.09.19.13.41.15.63.33-.51.87-.87,1.53-.87.07,0,.13.03.2.04-.03-.14-.08-.27-.08-.42s.05-.28.09-.42c-.3.64-.93,1.08-1.67,1.08ZM90.98,97.77c-.68,0-1.23.55-1.23,1.23s.55,1.23,1.23,1.23,1.23-.55,1.23-1.23-.55-1.23-1.23-1.23Z"/>
        </g>
      </g>
    </g>
  </g>
</svg>