<svg xmlns="http://www.w3.org/2000/svg" viewBox="0 0 129 37"><path fill="var(--token-a72e9d0a-7238-41ec-b7f9-2bed3d65b467, rgb(250, 250, 250))" d="M22.9 12.08a4.947 4.947 0 1 1-9.894 0 4.947 4.947 0 0 1 9.894 0Z"/><path fill="var(--token-a72e9d0a-7238-41ec-b7f9-2bed3d65b467, rgb(250, 250, 250))" d="M22.897 24.816a4.992 4.992 0 0 0-1.471-3.54 5.01 5.01 0 0 0-3.548-1.465h-.176a7.294 7.294 0 0 1-5.394-2.122 7.264 7.264 0 0 1-2.128-5.38v-.174a4.99 4.99 0 0 0-.849-2.78A5.03 5.03 0 0 0 4.178 7.23 5.026 5.026 0 0 0 1.61 8.604a4.996 4.996 0 0 0-1.081 5.458 5.004 5.004 0 0 0 1.852 2.244 5.03 5.03 0 0 0 2.789.839c.058 0 .115 0 .176-.004a7.3 7.3 0 0 1 5.393 2.122 7.287 7.287 0 0 1 1.625 2.469 7.26 7.26 0 0 1 .503 2.911c0 .056-.003.113-.003.174a4.984 4.984 0 0 0 1.446 3.582 5.026 5.026 0 0 0 8.227-1.646 5 5 0 0 0 .363-1.936h-.003Z"/><path fill="var(--token-a72e9d0a-7238-41ec-b7f9-2bed3d65b467, rgb(250, 250, 250))" d="M.144 24.99a4.899 4.899 0 1 0 9.797 0 4.899 4.899 0 0 0-9.797 0ZM13.103 12.032a4.9 4.9 0 1 0 9.798 0 4.9 4.9 0 0 0-9.798 0Z"/><path fill="var(--token-a72e9d0a-7238-41ec-b7f9-2bed3d65b467, rgb(250, 250, 250))" d="M10.038 24.942a4.947 4.947 0 1 1-9.894 0 4.947 4.947 0 0 1 9.894 0ZM28.046 6.616h7.422v10h8.742v-4.937c0-2.139-.314-3.648-1.446-5.063h7.39v17.736c0 2.138.314 3.711 1.446 5.063h-7.39v-9.686h-8.742v4.623c0 2.138.314 3.711 1.446 5.063h-7.39V11.679c0-2.139-.314-3.648-1.478-5.063ZM54.194 18.723v-2.201c1.195-1.887 3.71-3.491 6.729-3.491 4.655 0 6.793 2.516 6.793 6.51v4.685c0 2.201.346 3.805 1.446 5.189h-6.635v-2.453c-.88 1.352-2.547 2.704-5.157 2.704-2.768 0-4.466-1.509-4.466-3.962 0-2.358 1.573-3.774 5.158-4.654 3.427-.881 4.465-1.101 4.465-2.61 0-1.289-1.163-1.824-2.924-1.824-2.044 0-4.026.912-5.315 2.107Zm3.836 6.352c0 .975.566 1.856 1.793 1.856 1.383 0 2.704-1.227 2.704-3.711v-1.478l-2.453.88c-1.195.535-2.044 1.195-2.044 2.453ZM73.83 10.956c-1.384 0-3.145-1.353-3.145-2.705 0-1.384 1.761-2.799 3.145-2.799 1.352 0 3.176 1.415 3.176 2.799 0 1.352-1.855 2.705-3.176 2.705Zm-3.994 2.358h6.636v10.912c0 2.013.283 3.805 1.446 5.189h-6.667V18.566c0-2.233-.283-3.805-1.415-5.252ZM78.543 13.314h6.635v2.736c.944-1.698 2.705-3.019 5.252-3.019 3.585 0 6.289 2.893 6.289 7.61 0 5.032-3.459 9.057-8.93 9.057-.975 0-1.887-.157-2.611-.346v2.012c0 2.17.284 3.774 1.447 5.221h-6.667V18.566c0-2.233-.283-3.805-1.415-5.252Zm6.447 8.9c0 2.987.88 5.314 3.082 5.314 1.918 0 3.081-2.233 3.081-5.535 0-3.71-.974-5.723-3.019-5.723-1.415 0-3.144 1.478-3.144 5.944ZM113.381 26.427c-1.195 1.761-3.711 3.271-7.045 3.271-5 0-8.239-2.956-8.239-8.114 0-5.094 3.617-8.553 8.239-8.553 4.403 0 7.107 2.736 7.107 6.667 0 .754.063 1.289.283 1.824h-10.157c.252 2.893 1.793 4.78 4.937 4.78 1.856 0 3.302-.567 4.875-1.73Zm-7.139-10.849c-1.352 0-2.484 1.164-2.704 3.962h5.346c-.032-2.641-.818-3.962-2.642-3.962ZM116.136 29.415V19.037c0-2.421-.126-3.962-1.352-5.723h6.635v4.371c1.069-3.019 2.956-4.591 5.063-4.591.314 0 .723.031 1.006.126l.661 5.817h-.189c-.661-.377-1.604-.629-2.61-.629-2.485 0-4.057 1.667-4.057 5.346 0 2.076.472 4.214 1.51 5.661Z"/></svg>