<?xml version="1.0" encoding="UTF-8"?>
<svg id="Layer_2" data-name="Layer 2" xmlns="http://www.w3.org/2000/svg" viewBox="0 0 512 160">
  <defs>
    <style>
      .cls-1 {
        fill: #fff;
        stroke-width: 0px;
      }
    </style>
  </defs>
  <g id="Layer_1-2" data-name="Layer 1" image-rendering="optimizeQuality" shape-rendering="geometricPrecision" text-rendering="geometricPrecision">
    <path class="cls-1" d="M197.36,0h-24.48v25.63h24.48V0ZM510.96,130.4v-61.21c0-35.78-22.39-51.74-72.63-51.74-42.21,0-67.41,18.98-67.41,50.77h24.68c0-19.03,13.18-27.5,42.72-27.5,35.69,0,48.36,7.91,48.36,30.22-8.72,1.17-17,2.21-25.09,3.22-60.67,7.58-97.28,12.17-97.28,47.27,0,13.77,5.27,23.53,16.13,29.83,9.71,5.64,27.02,8.74,48.73,8.74,29.24,0,53.58-7.11,60.56-17.68-.63,9.61,0,15.58,0,15.63h22.26c-.03-.1-1.04-11.05-1.04-27.55h0ZM486.68,101.57c0,14.92-5.29,25.16-16.18,31.28-9.73,5.47-24.36,8.03-46,8.03-13.26,0-35.5-2.56-35.5-19.65,0-8.34,5.8-13.44,20.02-17.56,15.33-4.45,41.09-7.9,77.68-11.99v9.89h-.02,0ZM390.23,120.93h-.61v.58h.61s0-.58,0-.58ZM87.87,0H0v157.95h24.48v-56.19h63.4c59.22,0,65.62-35.58,65.62-50.87-.02-15.3-6.42-50.89-65.62-50.89ZM83.45,78.31H24.48V23.45h58.99c30.66,0,43.73,8.19,43.73,27.42-.02,19.23-13.09,27.44-43.75,27.44ZM361.14,18.4h-33.9l-84.48,65.51V0h-24.48v157.95h24.48v-66.68l85.26,66.68h35.51l-91.07-72.09,88.68-67.46h0ZM197.36,36.71h-24.48v121.25h24.48V36.71Z"/>
  </g>
</svg>