<?xml version="1.0" encoding="UTF-8"?>
<svg id="Layer_2" data-name="Layer 2" xmlns="http://www.w3.org/2000/svg" viewBox="0 0 599.9 117.07">
  <defs>
    <style>
      .cls-1 {
        fill: #fff;
        stroke-width: 0px;
      }
    </style>
  </defs>
  <g id="layer">
    <path class="cls-1" d="M163.6,26.5h16.6l1.6,8.6c3.2-6.8,10.2-10.2,17.6-10.2,3.6,0,7.3.9,9.7,1.9l-3.9,19.9c-2.6-1.5-5.8-2.6-9.7-2.6-6.7,0-12.2,4.5-12.2,14.6v32.1h-19.7V26.5h0ZM215.9,66.9V26.1h20v37.1c0,7.5,4.3,11.5,10.6,11.5s11.9-4.9,11.9-15.7V26.2h20v64.4h-16.7l-2.2-8.5c-3.2,5.1-11,10-20.7,10-13.1-.1-22.9-8.3-22.9-25.2ZM288.7,26.5h16.5l2.2,8.5c3.1-5.1,10.8-10,20.4-10,12.7,0,22.3,8.1,22.3,25v40.9h-19.7v-36.8c0-7.6-3.9-11.7-10.4-11.7-6,0-11.5,4.9-11.5,16v32.6h-19.7l-.1-64.5h0ZM354.5,26.1h19.7l11.7,43.9,10.4-28.9-5.1-15h19.6l12.7,43.9,11.3-43.9h19.8l-21,64.8h-20.2l-8.7-25.8-9,25.8h-20.1l-21.1-64.8ZM455.7,58.5c0-22.1,16-33.5,30.7-33.5,9,0,15.5,3.6,18.7,7.3l1.8-5.8h18.2v64h-17.3l-2.7-6.3c-2.7,3.2-8.5,7.8-19.6,7.8-15.9,0-29.8-13-29.8-33.5ZM505.8,58.5c0-10.4-6.7-16.8-15.2-16.8s-15.2,6.5-15.2,16.8,6.6,16.8,15.2,16.8,15.2-6.4,15.2-16.8ZM545.6,117l10.9-29.5-25.9-61.4h21.2l14.4,40.1,13-40.1h20.7l-34.1,90.9h-20.2Z"/>
    <path class="cls-1" d="M89.7,117c-14.2,1.3-26-15.3-35.1-23.7C50,126.4,0,123.3,0,89.7V27.4c0-4.9,1.3-9.9,3.9-14.1C8.7,5.2,18-.1,27.4,0h62.3C123.3,0,126.5,50,93.3,54.5l15.8,15.7c17.3,16.3,4.3,47.5-19.4,46.8ZM82.1,97.2c9.8,10.1,25.4-5.5,15.3-15.3l-27.3-27.3h-15.3v15.3l23.6,23.6,3.7,3.7ZM16.6,89.6c-.2,14,21.9,14,21.6,0V27.3c.2-7-7.2-12.5-13.9-10.4-.3.1-.6.2-.8.3-4.2,1.6-7.1,5.8-7,10.3v62.1h.1ZM89.7,38.1c14,.2,14-21.8,0-21.6h-37.1c2.8,5.9,2.1,15.2,2.2,21.6h34.9Z"/>
  </g>
</svg>