<svg width="18" height="18" viewBox="0 0 18 18" fill="none" xmlns="http://www.w3.org/2000/svg">
<g id="media-image">
<path id="Vector" d="M15.75 2.85V15.15C15.75 15.4814 15.4814 15.75 15.15 15.75H2.85C2.51863 15.75 2.25 15.4814 2.25 15.15V2.85C2.25 2.51863 2.51863 2.25 2.85 2.25H15.15C15.4814 2.25 15.75 2.51863 15.75 2.85Z" stroke="white" stroke-width="1.5" stroke-linecap="round" stroke-linejoin="round"/>
<path id="Vector_2" d="M2.25 12L7.5 9.75L15.75 13.5" stroke="white" stroke-width="1.5" stroke-linecap="round" stroke-linejoin="round"/>
<path id="Vector_3" d="M12 7.5C11.1716 7.5 10.5 6.82843 10.5 6C10.5 5.17157 11.1716 4.5 12 4.5C12.8284 4.5 13.5 5.17157 13.5 6C13.5 6.82843 12.8284 7.5 12 7.5Z" stroke="white" stroke-width="1.5" stroke-linecap="round" stroke-linejoin="round"/>
</g>
</svg>
