<svg width="18" height="18" viewBox="0 0 18 18" fill="none" xmlns="http://www.w3.org/2000/svg">
<g id="sleeper-chair">
<path id="Vector" d="M3 13.5L3 15.75" stroke="white" stroke-width="1.5" stroke-linecap="round" stroke-linejoin="round"/>
<path id="Vector_2" d="M3.75 7.5V4.25C3.75 3.14543 4.64543 2.25 5.75 2.25L12.25 2.25C13.3546 2.25 14.25 3.14543 14.25 4.25V7.5" stroke="white" stroke-width="1.5" stroke-linecap="round" stroke-linejoin="round"/>
<path id="Vector_3" d="M14.625 7.5C13.5895 7.5 12.75 8.33947 12.75 9.375V10.5H5.25V9.375C5.25 8.33947 4.41053 7.5 3.375 7.5C2.33947 7.5 1.5 8.33947 1.5 9.375C1.5 10.2821 2.14416 11.0388 3 11.2125V13.5H15V11.2125C15.8558 11.0388 16.5 10.2821 16.5 9.375C16.5 8.33947 15.6605 7.5 14.625 7.5Z" stroke="white" stroke-width="1.5" stroke-linecap="round" stroke-linejoin="round"/>
<path id="Vector_4" d="M15 13.5L15 15.75" stroke="white" stroke-width="1.5" stroke-linecap="round" stroke-linejoin="round"/>
</g>
</svg>
