<svg width="18" height="18" viewBox="0 0 18 18" fill="none" xmlns="http://www.w3.org/2000/svg">
<g id="video-projector">
<path id="Vector" d="M3 14.25H4.5" stroke="white" stroke-width="1.5" stroke-linecap="round" stroke-linejoin="round"/>
<path id="Vector_2" d="M13.5 14.25H15" stroke="white" stroke-width="1.5" stroke-linecap="round" stroke-linejoin="round"/>
<path id="Vector_3" d="M1.5 12.15V5.85C1.5 5.51863 1.76863 5.25 2.1 5.25H15.9C16.2314 5.25 16.5 5.51863 16.5 5.85V12.15C16.5 12.4814 16.2314 12.75 15.9 12.75H2.1C1.76863 12.75 1.5 12.4814 1.5 12.15Z" stroke="white" stroke-width="1.5"/>
<path id="Vector_4" d="M3.75 7.5075L3.7575 7.49917" stroke="white" stroke-width="1.5" stroke-linecap="round" stroke-linejoin="round"/>
<path id="Vector_5" d="M6 7.5075L6.0075 7.49917" stroke="white" stroke-width="1.5" stroke-linecap="round" stroke-linejoin="round"/>
<path id="Vector_6" d="M8.25 7.5075L8.2575 7.49917" stroke="white" stroke-width="1.5" stroke-linecap="round" stroke-linejoin="round"/>
<path id="Vector_7" d="M3.75 10.5075L3.7575 10.4992" stroke="white" stroke-width="1.5" stroke-linecap="round" stroke-linejoin="round"/>
<path id="Vector_8" d="M6 10.5075L6.0075 10.4992" stroke="white" stroke-width="1.5" stroke-linecap="round" stroke-linejoin="round"/>
<path id="Vector_9" d="M8.25 10.5075L8.2575 10.4992" stroke="white" stroke-width="1.5" stroke-linecap="round" stroke-linejoin="round"/>
<path id="Vector_10" d="M12.75 10.5C13.5784 10.5 14.25 9.82843 14.25 9C14.25 8.17157 13.5784 7.5 12.75 7.5C11.9216 7.5 11.25 8.17157 11.25 9C11.25 9.82843 11.9216 10.5 12.75 10.5Z" stroke="white" stroke-width="1.5" stroke-linecap="round" stroke-linejoin="round"/>
</g>
</svg>
